<svg  viewBox="0 0 35 35" fill="none" xmlns="http://www.w3.org/2000/svg">
<path d="M17.4202 34C8.34317 33.9859 0.985962 26.5792 1.00002 17.4688C1.01252 7.92227 9.06952 0.672534 18.1169 1.01141C26.7971 1.33616 34.1824 8.71769 33.9966 17.9316C33.8169 26.7267 26.441 34.0141 17.4202 34ZM7.6918 13.0227C7.66837 13.3804 7.64338 13.5843 7.64338 13.7883C7.64338 16.5824 7.6465 19.3766 7.65275 22.1723C7.65588 23.7851 8.2557 24.3828 9.87241 24.3844C14.9694 24.386 20.0663 24.386 25.1617 24.3844C26.7065 24.3844 27.3579 23.7459 27.3626 22.2115C27.3704 19.4425 27.3673 16.675 27.3657 13.9059C27.3657 13.6596 27.3345 13.4133 27.311 13.0572C26.9846 13.2423 26.7612 13.36 26.5472 13.4933C24.2276 14.9382 21.9189 16.4004 19.5867 17.8265C17.1796 19.2997 17.8513 19.3436 15.4239 17.8375C12.8856 16.2608 10.3504 14.6778 7.6918 13.0227ZM26.8471 12.8313C26.8643 12.7842 26.8815 12.7356 26.8987 12.6885C23.8777 10.8027 20.8614 8.90909 17.8216 7.05469C17.6201 6.93231 17.175 7.04057 16.9328 7.18961C14.204 8.86359 11.4922 10.5658 8.77742 12.2618C8.55092 12.403 8.33068 12.5551 8.10887 12.701C8.13074 12.7434 8.1526 12.7873 8.17447 12.8297C14.3976 12.8313 20.6224 12.8313 26.8471 12.8313Z" fill="#BBFF4B"/>
</svg>
