<svg  viewBox="0 0 35 35" fill="none" xmlns="http://www.w3.org/2000/svg">
<path d="M27.125 1H7.875C4.07862 1 1 4.07862 1 7.875V27.125C1 30.9214 4.07862 34 7.875 34H27.125C30.9228 34 34 30.9214 34 27.125V7.875C34 4.07862 30.9228 1 27.125 1ZM12 27.125H7.875V12H12V27.125ZM9.9375 10.2565C8.60925 10.2565 7.53125 9.17025 7.53125 7.831C7.53125 6.49175 8.60925 5.4055 9.9375 5.4055C11.2657 5.4055 12.3438 6.49175 12.3438 7.831C12.3438 9.17025 11.2671 10.2565 9.9375 10.2565ZM28.5 27.125H24.375V19.4195C24.375 14.7885 18.875 15.1391 18.875 19.4195V27.125H14.75V12H18.875V14.4269C20.7945 10.8711 28.5 10.6085 28.5 17.8314V27.125Z" fill="#BBFF4B"/>
</svg>
