<svg  viewBox="0 0 35 35" fill="none" xmlns="http://www.w3.org/2000/svg">
<path d="M29.2641 7.48525C29.0305 7.36316 28.803 7.22932 28.5826 7.08423C27.9418 6.65583 27.3542 6.15105 26.8326 5.58076C25.5274 4.07073 25.04 2.53883 24.8604 1.46628H24.8676C24.7176 0.576013 24.7797 0 24.789 0H18.8444V23.2432C18.8444 23.5553 18.8444 23.8637 18.8315 24.1685C18.8315 24.2064 18.8278 24.2414 18.8257 24.2822C18.8257 24.299 18.8257 24.3165 18.8221 24.334C18.8221 24.3384 18.8221 24.3427 18.8221 24.3471C18.7594 25.1811 18.495 25.9867 18.0522 26.6931C17.6093 27.3995 17.0016 27.985 16.2824 28.3982C15.5329 28.8293 14.6852 29.0555 13.8228 29.0544C11.0531 29.0544 8.8084 26.7707 8.8084 23.9505C8.8084 21.1302 11.0531 18.8466 13.8228 18.8466C14.3471 18.8461 14.8682 18.9295 15.3666 19.0937L15.3739 12.9734C13.8606 12.7758 12.3232 12.8974 10.8587 13.3306C9.39422 13.7638 8.03442 14.4992 6.86508 15.4904C5.84047 16.3906 4.97908 17.4646 4.31966 18.6643C4.06873 19.1018 3.12194 20.8597 3.00729 23.7128C2.93518 25.3322 3.41615 27.0099 3.64545 27.7033V27.7179C3.78967 28.1262 4.34851 29.5196 5.25923 30.6942C5.99361 31.6364 6.86125 32.4641 7.83422 33.1506V33.1361L7.84864 33.1506C10.7265 35.128 13.9173 34.9983 13.9173 34.9983C14.4696 34.9756 16.3199 34.9983 18.4212 33.9913C20.7517 32.875 22.0785 31.2119 22.0785 31.2119C22.9261 30.2181 23.6001 29.0856 24.0716 27.863C24.6095 26.4332 24.789 24.7182 24.789 24.0329V11.7018C24.8611 11.7456 25.8216 12.3879 25.8216 12.3879C25.8216 12.3879 27.2054 13.2848 29.3643 13.8688C30.9132 14.2844 33 14.3719 33 14.3719V8.40468C32.2688 8.48489 30.7841 8.25157 29.2641 7.48525Z" fill="#BBFF4B"/>
</svg>
