<svg  viewBox="0 0 168 34" fill="current" xmlns="http://www.w3.org/2000/svg">
<path d="M16.4227 26.3215C16.3945 26.4191 16.3664 26.5185 16.3329 26.6145C15.9677 27.6151 15.259 28.4566 14.3308 28.9917C13.4026 29.5269 12.314 29.7216 11.2555 29.5418C10.197 29.3619 9.23607 28.8191 8.54081 28.0082C7.84554 27.1972 7.46026 26.1699 7.45237 25.1059V23.048H3.61499V25.1059C3.59704 27.2197 4.39148 29.2611 5.83709 30.8158C7.28271 32.3706 9.2712 33.3221 11.399 33.4775C13.5269 33.6328 15.6347 32.9803 17.2947 31.6523C18.9547 30.3243 20.0426 28.4203 20.3375 26.3267L16.4227 26.3215Z" fill="current"/>
<path d="M12.4621 0.5H11.582C8.7589 0.5 6.05148 1.61109 4.05528 3.58882C2.05908 5.56656 0.937622 8.24895 0.937622 11.0459V20.9238H23.1064V11.0459C23.1064 8.24895 21.985 5.56656 19.9888 3.58882C17.9926 1.61109 15.2851 0.5 12.4621 0.5Z" fill="current"/>
<path d="M31.5363 1.20283H37.4755C43.7772 1.20283 47.81 5.25237 47.81 11.0808C47.81 16.8813 43.918 20.9046 37.5582 20.9046H31.5363V1.20283ZM37.4192 18.7107C42.2652 18.7107 45.2893 15.5192 45.2893 11.079C45.2893 6.58477 42.1525 3.39328 37.5036 3.39328H33.9743V18.7107H37.4192Z" fill="current"/>
<path d="M49.7938 14.2444C49.7938 10.2489 52.5662 7.22482 56.4318 7.22482C58.449 7.22482 60.2146 8.16657 61.1951 9.80592L61.2496 9.77801V7.39049H63.5186V20.9046H61.3341V18.4631H61.306C60.3255 20.0728 58.6462 21.079 56.4318 21.079C52.6789 21.0721 49.7938 18.3515 49.7938 14.2444ZM61.3341 14.2444C61.3341 11.4697 59.4577 9.27749 56.7698 9.27749C54.1927 9.27749 52.091 11.2482 52.091 14.2444C52.091 16.965 53.9674 19.0177 56.7698 19.0177C59.2887 19.0177 61.3341 17.1028 61.3341 14.2444Z" fill="current"/>
<path d="M67.3102 16.8813V9.3333H65.55V7.39049H67.3102V2.78462L69.5792 2.53349V7.39049H74.089V9.3333H69.5792V16.5482C69.5792 18.1858 69.9436 18.9618 71.2321 18.9618C72.0436 18.9618 72.885 18.6287 73.5557 18.2643L74.1436 20.2332C73.3884 20.6779 72.4643 21.0668 70.8396 21.0668C68.4298 21.0721 67.3102 19.6001 67.3102 16.8813Z" fill="current"/>
<path d="M75.036 14.2444C75.036 10.2489 77.8085 7.22482 81.674 7.22482C83.6913 7.22482 85.4551 8.16657 86.4355 9.80592L86.4919 9.77801V7.39049H88.7591V20.9046H86.5746V18.4631H86.5499C85.5695 20.0728 83.8902 21.079 81.6775 21.079C77.9246 21.0721 75.036 18.3515 75.036 14.2444ZM86.5746 14.2444C86.5746 11.4697 84.6982 9.27749 82.0102 9.27749C79.4332 9.27749 77.3314 11.2482 77.3314 14.2444C77.3314 16.965 79.2096 19.0177 82.0102 19.0177C84.5309 19.0177 86.5746 17.1028 86.5746 14.2444Z" fill="current"/>
<path d="M112.517 15.521V7.33469H116.159V14.5775C116.159 17.0469 116.916 17.8806 118.624 17.8806C120.22 17.8806 121.65 16.5482 121.65 13.9392V7.33469H125.346V20.9046H121.65V19.295L121.593 19.267C121.107 19.8608 120.492 20.3385 119.794 20.6648C119.096 20.9912 118.332 21.1578 117.561 21.1523C114.591 21.1523 112.517 19.656 112.517 15.521Z" fill="current"/>
<path d="M127.494 14.1607C127.494 10.0553 130.266 7.13936 133.935 7.13936C135.533 7.13936 136.989 7.7515 137.969 8.91648L138.024 8.88858V7.33469H141.694V20.9046H138.193V19.295L138.138 19.267C137.184 20.4878 135.813 21.154 134.019 21.154C130.266 21.1523 127.494 18.3515 127.494 14.1607ZM138.193 14.1886C138.193 11.9964 136.681 10.3884 134.72 10.3884C132.731 10.3884 131.218 11.8586 131.218 14.1886C131.218 16.3546 132.646 17.8806 134.72 17.8806C136.596 17.8806 138.193 16.4087 138.193 14.1886Z" fill="current"/>
<path d="M144.577 7.33469H148.247V9.30539H148.302C149.339 7.9102 150.824 7.13936 152.419 7.13936H152.701V11.1087C152.308 11.0808 151.944 11.0808 151.72 11.0808C149.451 11.0808 148.247 12.5806 148.247 14.6333V20.9116H144.577V7.33469Z" fill="current"/>
<path d="M153.625 14.1607C153.625 10.0553 156.425 7.13936 160.096 7.13936C161.777 7.13936 163.232 7.7515 164.241 8.91648H164.297V2.53349H167.938V20.9046H164.436V19.2339H164.408C163.456 20.4547 162.028 21.1523 160.184 21.1523C156.399 21.1523 153.625 18.3515 153.625 14.1607ZM164.436 14.1886C164.436 11.9964 162.953 10.3884 160.853 10.3884C158.89 10.3884 157.35 11.8586 157.35 14.1886C157.35 16.3546 158.807 17.8806 160.853 17.8806C162.868 17.8806 164.436 16.4087 164.436 14.1886Z" fill="current"/>
<path d="M102.118 10.1652V13.3044H105.869V16.4086C104.672 17.1617 103.282 17.5571 101.864 17.5475C98.1395 17.5475 95.8424 14.717 95.8424 11.0808C95.8424 7.05739 98.4194 4.64197 101.695 4.64197C102.645 4.62478 103.589 4.7979 104.47 5.15092C105.351 5.50395 106.15 6.02962 106.821 6.69639L109.595 4.31061C107.55 2.06261 104.526 0.951697 101.695 0.951697C95.478 0.951697 91.7251 5.31166 91.7251 11.0808C91.7251 17.4097 96.1258 21.0982 101.864 21.0982C104.917 21.0982 107.886 20.1007 109.706 18.6567V10.1652H102.118Z" fill="current"/>
</svg>
