<svg  viewBox="0 0 90 54" fill="current" xmlns="http://www.w3.org/2000/svg">
<path d="M9.86578 53.4959C10.3825 50.9883 10.8992 48.4793 11.4283 45.9152C12.7105 45.9152 13.9638 45.9152 15.2158 45.9152C16.2904 45.9152 17.3651 45.9359 18.4384 45.9055C18.9001 45.8917 19.1558 45.9842 19.2107 46.5058C19.2574 46.9557 19.4141 47.396 19.5735 48.046C19.9624 47.4263 20.2978 46.9378 20.5822 46.4203C20.7952 46.0339 21.0577 45.8986 21.5057 45.9041C23.7224 45.9317 25.9391 45.9152 28.1571 45.9179C28.3591 45.9179 28.5625 45.9345 28.8882 45.9497C28.3481 48.5014 27.8204 50.9993 27.2927 53.4986C25.8291 53.4986 24.3656 53.4986 22.902 53.4986C23.3184 51.5155 23.7361 49.5323 24.1525 47.5492C24.1127 47.534 24.0728 47.5188 24.033 47.505C22.7865 49.5033 21.5401 51.5017 20.295 53.5C19.1063 53.5 17.9162 53.5 16.7274 53.5C16.5062 52.3614 16.2918 51.2229 16.0623 50.0857C15.8988 49.2756 15.716 48.4697 15.5428 47.6623C15.3175 48.1026 15.2185 48.5193 15.1374 48.9389C14.842 50.4583 14.5506 51.9792 14.2593 53.5C12.7929 53.4959 11.3294 53.4959 9.86578 53.4959Z" fill="current"/>
<path d="M64.4773 0.50138C65.1273 0.686309 65.7911 0.832596 66.426 1.06307C68.6372 1.86764 69.9881 4.0026 69.6473 6.19967C68.1617 6.19967 66.6624 6.20933 65.1645 6.18311C65.0298 6.18035 64.8195 5.97196 64.781 5.82291C64.546 4.91759 63.9001 4.48701 63.0591 4.38074C62.2483 4.27862 61.421 4.2731 60.6033 4.2938C60.4288 4.29794 60.1649 4.57671 60.1072 4.77682C59.7032 6.19691 59.7169 6.20105 58.2794 6.20105C57.235 6.20105 56.1906 6.20105 55.0431 6.20105C55.4567 4.24135 55.8511 2.37137 56.2469 0.5C58.9885 0.50138 61.7329 0.50138 64.4773 0.50138Z" fill="current"/>
<path d="M85.4718 0.50138C83.9409 2.32031 82.4155 4.14337 80.8708 5.94849C80.7458 6.09478 80.4833 6.19001 80.284 6.19139C77.8213 6.20795 75.3601 6.20933 72.8974 6.18863C72.6967 6.18725 72.3903 6.0451 72.3133 5.88087C71.5149 4.18753 70.7522 2.47763 69.9853 0.769113C69.951 0.693209 69.9716 0.591084 69.9661 0.50138C71.6125 0.50138 73.2588 0.50138 74.9065 0.50138C75.4521 2.01669 75.9977 3.53338 76.5941 5.1867C77.8749 3.54994 79.0664 2.02497 80.2593 0.50138C81.9963 0.50138 83.7334 0.50138 85.4718 0.50138Z" fill="current"/>
<path d="M90 24.5145C89.8983 25.2887 89.383 25.3412 88.7398 25.3218C87.4246 25.2818 86.1067 25.3094 84.6308 25.3094C84.8438 25.1217 84.9853 25.0569 85.0169 24.9575C85.1516 24.5242 85.399 24.0508 85.3165 23.6506C85.2616 23.3815 84.7531 23.1193 84.4013 23.0199C83.9959 22.9053 83.541 22.9647 83.1067 22.9647C81.1223 22.9619 79.1379 22.9633 77.027 22.9633C77.2565 21.7972 77.4695 20.7152 77.6922 19.578C79.0623 19.578 80.383 19.5684 81.705 19.5808C83.0284 19.5932 84.3559 19.5656 85.6738 19.665C87.8081 19.8278 89.4008 20.7773 90 22.9951C90 23.5029 90 24.008 90 24.5145Z" fill="current"/>
<path d="M17.4132 0.50138C18.1429 0.734611 18.9125 0.887798 19.5955 1.21901C21.3353 2.06223 22.1022 3.9474 21.5195 5.80221C21.4686 5.96506 21.2364 6.18035 21.0852 6.18311C19.5584 6.21071 18.0302 6.19967 16.4072 6.05752C16.5653 5.94159 16.7577 5.85189 16.8759 5.70422C17.4489 4.98521 17.1136 4.07437 16.2066 3.9612C15.4851 3.8715 14.7499 3.86736 14.0215 3.86184C12.29 3.84942 10.5584 3.8577 8.75263 3.8577C8.94778 2.68602 9.13193 1.59439 9.31608 0.50138C12.0151 0.50138 14.7142 0.50138 17.4132 0.50138Z" fill="current"/>
<path d="M49.2464 0.50138C49.6532 2.37275 50.06 4.24274 50.486 6.19967C49.1228 6.19967 47.8255 6.21209 46.5309 6.18173C46.3866 6.17759 46.1654 5.94298 46.1255 5.77875C46.0169 5.33713 45.9867 4.87618 45.9015 4.24136C45.5538 4.84444 45.2996 5.33575 44.9918 5.79117C44.8708 5.9692 44.6358 6.18035 44.4475 6.18449C43.0362 6.21761 41.6235 6.20243 40.0884 6.20243C41.2565 4.24136 42.371 2.37275 43.4842 0.50276C45.404 0.50138 47.3252 0.50138 49.2464 0.50138Z" fill="current"/>
<path d="M36.76 0.50138C36.5717 1.62613 36.3834 2.75089 36.191 3.90186C32.1961 3.90186 28.2712 3.90186 24.2075 3.90186C24.4631 2.74675 24.7119 1.62337 24.9606 0.50138C28.8923 0.50138 32.8268 0.50138 36.76 0.50138Z" fill="current"/>
<path d="M29.2125 53.4959C29.4008 52.5105 29.5726 51.521 29.7925 50.5425C29.8282 50.3852 30.0756 50.1616 30.2254 50.1602C34.076 50.1451 37.9267 50.1561 41.776 50.1644C41.8172 50.1644 41.8571 50.2003 41.9313 50.2348C41.7169 51.3167 41.5011 52.407 41.2854 53.4959C37.2629 53.4959 33.2377 53.4959 29.2125 53.4959Z" fill="current"/>
<path d="M43.2616 7.68738C42.8479 8.41743 42.5016 9.0288 42.1113 9.71607C43.0609 9.71607 43.9501 9.71607 44.9052 9.71607C44.8323 9.07296 44.7595 8.42571 44.6812 7.73016C46.1159 7.73016 47.4998 7.73016 48.951 7.73016C49.4704 10.206 49.9913 12.686 50.5245 15.2212C48.9469 15.2212 47.4283 15.2212 45.8383 15.2212C45.7311 14.6291 45.6184 14.0108 45.4961 13.3346C43.7824 13.3346 42.0715 13.3222 40.3619 13.3539C40.1832 13.3567 39.907 13.5982 39.8507 13.7831C39.4453 15.1204 38.541 15.4323 37.2533 15.2888C36.2377 15.1756 35.1988 15.2612 34.1709 15.2543C34.1365 15.2543 34.1008 15.2156 34.0032 15.1577C34.5831 14.2068 35.1631 13.2559 35.7416 12.3037C36.5758 10.9333 37.4196 9.56979 38.2332 8.18834C38.4407 7.83504 38.6592 7.66668 39.0893 7.67634C40.4361 7.70532 41.7829 7.68738 43.2616 7.68738Z" fill="current"/>
<path d="M44.3239 34.353C42.7971 34.353 41.3623 34.3668 39.9276 34.3309C39.7847 34.3268 39.5634 34.0328 39.525 33.8424C39.235 32.4264 39.246 32.4237 37.7893 32.4237C36.6926 32.4237 35.5946 32.4444 34.4979 32.414C34.0293 32.4002 33.6981 32.5065 33.5497 32.9826C33.1883 34.1474 32.4214 34.5145 31.2245 34.382C30.1223 34.2605 28.9954 34.3557 27.771 34.3557C27.9043 34.0894 27.9785 33.9086 28.0788 33.743C29.3871 31.5887 30.7091 29.4427 32.0023 27.2802C32.229 26.9006 32.4682 26.7337 32.923 26.7447C34.2231 26.7764 35.5245 26.7557 36.9647 26.7557C36.5868 27.4816 36.2515 28.1289 35.8791 28.8465C36.8562 28.8465 37.7329 28.8465 38.7018 28.8465C38.6193 28.1717 38.5396 27.5258 38.4448 26.7557C39.4013 26.7557 40.3248 26.7557 41.2483 26.7557C42.65 26.7557 42.6555 26.7544 42.9592 28.1248C43.4114 30.1576 43.8525 32.1932 44.3239 34.353Z" fill="current"/>
<path d="M51.995 15.2377C52.5117 12.6956 53.0133 10.2281 53.5218 7.7274C55.0953 7.7274 56.6427 7.7274 58.2712 7.7274C58.0307 8.98188 57.7929 10.2267 57.5277 11.6123C58.6464 11.5322 59.7073 11.5626 60.7215 11.3597C62.5025 11.0023 63.3917 9.72435 63.3779 7.74396C64.9597 7.74396 66.5415 7.74396 68.1892 7.74396C68.24 9.90652 67.421 11.6647 65.8213 13.0627C64.2011 14.4773 62.2263 15.1052 60.1539 15.206C57.4631 15.3357 54.7627 15.2377 51.995 15.2377Z" fill="current"/>
<path d="M9.54833 15.2446C8.06001 15.2446 6.62529 15.2446 5.09849 15.2446C5.60559 12.7219 6.10719 10.2281 6.61429 7.71084C10.9982 7.71084 15.3477 7.71084 19.7769 7.71084C19.2932 9.01776 18.2858 9.68985 17.1273 10.2819C17.8914 11.949 18.6445 13.5968 19.4567 15.3688C17.7444 15.3688 16.1777 15.3812 14.6125 15.3481C14.4695 15.3454 14.2785 15.0762 14.2029 14.8927C13.7288 13.7514 13.3 12.5907 12.8081 11.4591C12.7187 11.2521 12.4178 11.0368 12.1938 11.012C11.6331 10.9457 11.06 10.9899 10.4691 10.9899C10.1585 12.4238 9.85891 13.8052 9.54833 15.2446Z" fill="current"/>
<path d="M73.4086 34.3116C73.8937 31.8772 74.3651 29.5214 74.8296 27.1629C74.8956 26.8275 75.0289 26.6702 75.4123 26.6715C79.5268 26.6867 83.6427 26.6812 87.7586 26.684C87.8465 26.684 87.9331 26.7116 88.0967 26.7378C87.6033 28.0102 86.6248 28.7113 85.432 29.295C86.1878 30.9415 86.9368 32.5713 87.7174 34.2743C87.5085 34.3074 87.3655 34.3502 87.2226 34.3516C85.8731 34.3571 84.525 34.3406 83.1755 34.364C82.792 34.3709 82.6079 34.2357 82.4746 33.8824C82.0458 32.748 81.5703 31.6329 81.1498 30.4957C81.0151 30.1286 80.8296 29.9989 80.4503 30.0182C79.9061 30.0472 79.3591 30.0251 78.7778 30.0251C78.4686 31.4673 78.1663 32.8694 77.8571 34.3102C76.3853 34.3116 74.934 34.3116 73.4086 34.3116Z" fill="current"/>
<path d="M20.4366 30.4916C22.6477 30.4916 24.8081 30.4916 27.044 30.4916C26.7801 31.8068 26.5328 33.035 26.2771 34.3061C22.4746 34.3061 18.6912 34.3061 14.8378 34.3061C15.3477 31.7902 15.8507 29.3089 16.3591 26.7958C17.9409 26.7958 19.4869 26.7958 21.1539 26.7958C20.9162 28.0212 20.6839 29.215 20.4366 30.4916Z" fill="current"/>
<path d="M5.46404 30.3825C5.18782 31.6453 4.89922 32.955 4.60238 34.3088C3.07421 34.3088 1.55841 34.3088 0 34.3088C0.5071 31.8882 0.996335 29.5159 1.51443 27.1504C1.54879 26.9945 1.80027 26.7751 1.95007 26.7751C6.08108 26.7544 10.2121 26.7585 14.5025 26.7585C14.2978 27.1449 14.1754 27.4527 13.9899 27.7121C12.9043 29.2329 11.3335 29.9271 9.56207 30.1479C8.23454 30.3135 6.88365 30.3066 5.46404 30.3825Z" fill="current"/>
<path d="M45.6967 19.5808C47.3568 19.5808 48.8589 19.5628 50.361 19.6042C50.5382 19.6084 50.7801 19.9037 50.8681 20.1149C51.3463 21.2783 51.7833 22.4582 52.2368 23.6326C52.3 23.7969 52.3743 23.957 52.4691 24.1792C53.6235 22.7356 54.7297 21.3348 55.8635 19.9548C56.0147 19.7712 56.2978 19.5987 56.5231 19.5946C57.9853 19.5628 59.4489 19.5794 60.9111 19.5822C60.9922 19.5822 61.0747 19.6167 61.2671 19.6594C60.5662 20.4889 59.923 21.2507 59.2785 22.0124C58.4498 22.9923 57.6335 23.9846 56.7787 24.9409C56.6083 25.1328 56.2895 25.2901 56.038 25.2929C53.5918 25.3191 51.1457 25.3136 48.7009 25.297C48.5098 25.2956 48.2116 25.1907 48.1457 25.0486C47.3321 23.2876 46.5529 21.5087 45.6967 19.5808Z" fill="current"/>
<path d="M10.1557 25.2418C10.4773 25.1093 10.8085 25.0113 11.1026 24.8443C11.6028 24.5587 11.8049 24.0398 11.6166 23.5485C11.4998 23.2435 11.082 22.9385 10.7467 22.8598C10.1557 22.7218 9.52634 22.7315 8.91205 22.7259C7.17774 22.7121 5.44343 22.7204 3.62391 22.7204C3.84517 21.6191 4.04306 20.573 4.27668 19.5339C4.30417 19.411 4.5213 19.2427 4.64773 19.2454C7.38525 19.2868 10.1434 19.1599 12.8548 19.4579C16.1145 19.8168 16.6848 22.3133 16.153 24.8071C16.076 25.1673 15.8795 25.326 15.4796 25.3205C13.7206 25.2984 11.9601 25.3094 10.2011 25.3094C10.1791 25.3094 10.1557 25.3025 10.1338 25.2984C10.1434 25.2749 10.1516 25.2528 10.1557 25.2418Z" fill="current"/>
<path d="M33.8149 25.3067C34.454 24.262 35.0215 23.3318 35.5918 22.4044C36.0948 21.5846 36.5896 20.7607 37.1145 19.9562C37.2217 19.7919 37.4443 19.5987 37.6175 19.596C39.3958 19.5697 41.1741 19.5794 43.0307 19.5794C43.4251 21.4742 43.8126 23.3415 44.2139 25.2666C42.7696 25.2666 41.4118 25.2666 39.9908 25.2666C39.8727 24.6691 39.7545 24.0729 39.6088 23.3359C39.2721 23.9225 39.0096 24.4179 38.7087 24.8871C38.5987 25.0583 38.3981 25.2846 38.2345 25.2887C36.8053 25.3205 35.3775 25.3067 33.8149 25.3067Z" fill="current"/>
<path d="M70.7687 34.4054C66.7201 34.4054 62.7306 34.4054 58.6683 34.4054C58.8937 33.2641 59.1081 32.1711 59.3294 31.0477C63.3532 31.0477 67.3399 31.0477 71.4269 31.0477C71.2043 32.1863 70.9872 33.2917 70.7687 34.4054Z" fill="current"/>
<path d="M46.8497 34.3544C47.1205 33.0129 47.3087 31.7626 47.6386 30.5523C47.8667 29.7118 47.754 29.0011 47.3472 28.2697C47.1067 27.8363 46.9418 27.3588 46.7082 26.8178C49.465 26.8178 52.1365 26.8178 54.9441 26.8178C54.4851 27.3837 54.1223 27.9315 53.6647 28.3787C52.8016 29.2205 52.4114 30.2432 52.2506 31.4135C52.1324 32.2732 51.9207 33.122 51.7105 33.9666C51.672 34.1225 51.4356 34.335 51.2872 34.3378C49.8484 34.3654 48.4123 34.3544 46.8497 34.3544Z" fill="current"/>
<path d="M70.9913 7.71222C73.6546 7.71222 76.3193 7.71222 79.1255 7.71222C78.7806 8.14004 78.5305 8.54164 78.1965 8.84939C76.9693 9.98242 76.4801 11.4343 76.2671 13.0379C76.1709 13.761 75.9812 14.4732 75.8259 15.2267C74.2524 15.2267 72.6858 15.2267 71.0284 15.2267C71.2057 14.3434 71.3074 13.4588 71.5657 12.6239C72.0275 11.1348 72.044 9.72573 71.1823 8.37327C71.0861 8.22146 71.0366 8.03929 70.9748 7.86679C70.9597 7.8309 70.983 7.77984 70.9913 7.71222Z" fill="current"/>
<path d="M45.3243 38.7775C45.088 39.9146 44.8626 41.0063 44.6289 42.1338C40.6793 42.1338 36.7627 42.1338 32.7375 42.1338C32.9519 41.0159 33.1622 39.9119 33.3793 38.7775C37.3633 38.7775 41.3032 38.7775 45.3243 38.7775Z" fill="current"/>
<path d="M20.7004 15.2667C20.9038 14.2109 21.0618 13.2394 21.3023 12.2885C21.3449 12.1188 21.7297 11.9311 21.9579 11.9297C24.8603 11.9049 27.7627 11.9131 30.6651 11.9131C31.5749 11.9131 32.4847 11.9131 33.448 11.9131C33.2501 12.9592 33.0852 13.9239 32.8708 14.8761C32.8365 15.0307 32.585 15.2487 32.4338 15.2501C28.5502 15.2708 24.6665 15.2667 20.7004 15.2667Z" fill="current"/>
<path d="M62.2043 22.9302C62.3981 21.9628 62.5836 20.9774 62.8062 20.0017C62.8392 19.8595 63.0563 19.6594 63.1883 19.6581C67.0183 19.6401 70.8497 19.6429 74.8021 19.6429C74.5602 20.7511 74.3431 21.7875 74.0957 22.817C74.0724 22.9136 73.8594 23.0268 73.7343 23.0268C69.9469 23.0323 66.158 23.024 62.3706 23.0158C62.3321 23.0158 62.2923 22.9771 62.2043 22.9302Z" fill="current"/>
<path d="M31.5268 38.7388C31.1448 40.6599 30.7806 42.4954 30.4068 44.3778C27.7819 44.3778 25.1695 44.3778 22.4457 44.3778C22.891 43.6795 23.3032 43.0322 23.7169 42.3863C24.4082 41.3057 25.0898 40.2196 25.8016 39.1528C25.9226 38.9707 26.1672 38.7595 26.3582 38.7554C28.0458 38.7264 29.7348 38.7388 31.5268 38.7388Z" fill="current"/>
<path d="M19.2781 38.7719C19.7178 40.6378 20.1521 42.4816 20.6015 44.3847C18.0344 44.3847 15.5346 44.3847 12.951 44.3847C13.3468 42.4747 13.7316 40.6226 14.115 38.7719C15.8672 38.7719 17.552 38.7719 19.2781 38.7719Z" fill="current"/>
<path d="M17.8804 25.308C18.2913 23.329 18.6761 21.4756 19.0609 19.6249C20.6592 19.6249 22.2011 19.6249 23.8227 19.6249C23.4599 21.4521 23.115 23.22 22.7412 24.981C22.7137 25.1135 22.4718 25.2901 22.3275 25.2929C20.8914 25.3177 19.4553 25.308 17.8804 25.308Z" fill="current"/>
<path d="M38.7526 44.4316C38.5286 45.5425 38.317 46.5942 38.0957 47.6927C35.9753 47.6927 33.8658 47.6927 31.6587 47.6927C31.8759 46.5942 32.0875 45.5315 32.3046 44.4316C34.4416 44.4316 36.5538 44.4316 38.7526 44.4316Z" fill="current"/>
<path d="M61.1654 28.6133C61.3729 27.5023 61.568 26.448 61.7728 25.3494C63.9015 25.3494 66.0124 25.3494 68.2125 25.3494C68.0078 26.4563 67.8099 27.523 67.6079 28.6133C65.4654 28.6133 63.3697 28.6133 61.1654 28.6133Z" fill="current"/>
<path d="M30.3284 6.01474C30.1264 7.04979 29.9478 8.01721 29.7375 8.97498C29.7087 9.10884 29.5204 9.30481 29.4036 9.30619C27.3752 9.32689 25.3481 9.32137 23.2332 9.32137C23.4613 8.17178 23.6729 7.10499 23.8901 6.01474C26.0421 6.01474 28.1338 6.01474 30.3284 6.01474Z" fill="current"/>
</svg>
