<svg  viewBox="0 0 111 48" fill="current" xmlns="http://www.w3.org/2000/svg">
<path d="M86.6998 12.1313C86.0813 14.6452 85.5313 16.9762 84.9073 19.2851C84.8462 19.5142 84.3295 19.758 84.0221 19.7635C81.5537 19.8023 79.0835 19.8171 76.6169 19.7672C75.8855 19.7525 75.5762 19.9944 75.4281 20.6816C75.1836 21.8175 74.8651 22.9369 74.5392 24.2114C77.9002 24.2114 81.1186 24.2114 84.4628 24.2114C84.1962 25.2716 84.0055 26.2007 83.7055 27.0929C83.6388 27.2924 83.1925 27.466 82.9111 27.4808C78.9057 27.6877 74.8966 27.8631 70.8894 28.0479C69.1358 28.1273 67.384 28.2049 65.4507 28.2917C66.3507 24.6399 67.2229 21.099 68.1154 17.4768C67.4821 18.0624 66.9618 18.574 66.41 19.0487C63.7304 21.3502 60.5324 22.187 57.0844 22.3163C56.2345 22.3477 55.1549 22.1112 54.5994 22.5398C54.079 22.9424 54.1124 24.0581 53.905 24.8616C53.6068 26.0234 53.3365 27.1908 53.0013 28.3415C52.9346 28.5724 52.6439 28.8938 52.4421 28.9068C49.9237 29.0527 47.4034 29.1487 44.7609 29.2633C44.8535 28.8255 44.9109 28.5022 44.9887 28.1845C47.1738 19.383 49.3626 10.5815 51.5403 1.77818C51.6662 1.27023 51.8421 0.985773 52.4476 0.995008C55.8715 1.04488 59.301 0.972843 62.7212 1.11322C64.9804 1.20743 67.171 1.85207 68.6765 3.66594C69.5283 4.69109 70.0431 5.99515 70.6875 7.13297C70.9301 6.17247 71.2097 5.01987 71.5116 3.87466C71.7542 2.95664 71.7542 1.70984 72.3578 1.2259C72.9541 0.749342 74.1726 1.01163 75.1188 1.00979C79.7797 0.996856 84.4388 1.00424 89.0997 1.00424C89.4589 1.00424 89.8182 1.00424 90.3052 1.00424C89.7885 3.16167 89.3108 5.1584 88.8312 7.15514C88.4738 8.64206 88.4738 8.64206 86.9424 8.64206C84.4425 8.64206 81.9426 8.64206 79.4427 8.64206C79.1075 8.64206 78.7724 8.64206 78.389 8.64206C78.1113 9.80944 77.8502 10.9103 77.5595 12.1331C80.6056 12.1313 83.5721 12.1313 86.6998 12.1313ZM56.3437 15.1273C57.6752 14.9721 58.8307 14.9758 59.901 14.6784C61.7139 14.176 62.7972 12.0297 62.4398 9.98676C62.2231 8.75289 61.3009 8.28557 59.0918 8.28742C58.9066 8.28742 58.6955 8.23016 58.5436 8.30219C58.3048 8.41487 57.9677 8.57557 57.914 8.7806C57.3844 10.7958 56.9067 12.8239 56.3437 15.1273Z" fill="current"/>
<path d="M35.8391 1.128C35.6632 1.89455 35.4984 2.63894 35.3188 3.37963C34.0244 8.72518 32.7115 14.0652 31.4467 19.4181C31.2449 20.2752 31.1727 21.1858 31.1912 22.0687C31.2116 23.0643 31.393 24.0673 32.567 24.4367C33.7929 24.8228 35.028 24.5623 35.6836 23.4652C36.415 22.2424 37.0317 20.8995 37.4187 19.5308C38.3705 16.1598 39.1649 12.7464 40.0167 9.34766C40.6445 6.84482 41.287 4.34383 41.8759 1.83175C42.0222 1.21112 42.2666 0.97469 42.9258 0.98762C45.022 1.02826 47.1201 1.00055 49.2181 1.00609C49.457 1.00609 49.6978 1.04857 50.0329 1.07998C49.2848 4.02797 48.5534 6.90947 47.8238 9.79282C46.9571 13.2192 46.1349 16.6567 45.2109 20.0665C44.3535 23.2324 43.1406 26.2469 40.9759 28.7959C40.5482 29.3002 40.1 29.5366 39.4093 29.5625C35.1558 29.7213 30.9042 29.9227 26.6544 30.1462C25.9599 30.1831 25.497 29.9725 25.0766 29.4387C23.8915 27.9333 23.3508 26.2081 23.1582 24.3315C22.8267 21.0824 23.5563 17.97 24.3285 14.8613C25.4174 10.4781 26.5118 6.09489 27.6432 1.72277C27.7173 1.43832 28.1228 1.04119 28.3802 1.03565C30.7227 0.983926 33.0689 1.00794 35.4132 1.01533C35.5299 1.01533 35.6447 1.07443 35.8391 1.128Z" fill="current"/>
<path d="M105.682 26.4095C103.023 26.5332 100.532 26.6625 98.04 26.7364C97.8326 26.7419 97.4863 26.4058 97.4215 26.1675C97.0789 24.9225 96.7827 23.6646 96.5197 22.4012C96.4179 21.908 96.1975 21.7326 95.7086 21.7584C95.2679 21.7824 94.8994 21.7326 94.7716 22.3495C94.492 23.7034 94.1365 25.0426 93.7643 26.3744C93.6995 26.6053 93.4217 26.9322 93.2236 26.9451C90.7052 27.1095 88.183 27.224 85.5795 27.3552C85.6109 27.0264 85.6035 26.7881 85.6591 26.5665C87.7108 18.332 89.7774 10.1031 91.8088 1.86315C91.9755 1.1908 92.244 0.97469 92.9236 0.985773C96.2253 1.03749 99.5288 0.976537 102.827 1.09845C104.036 1.14278 105.277 1.45309 106.423 1.86315C109.627 3.00836 111.454 6.38304 110.902 9.99969C110.399 13.3042 109.284 16.3242 106.604 18.5389C105.99 19.0469 105.327 19.5123 104.63 19.9002C104.127 20.181 104.012 20.4654 104.171 21.0048C104.682 22.7448 105.151 24.494 105.682 26.4095ZM96.7512 14.6138C97.9678 14.4753 99.0214 14.4771 100.003 14.2185C101.847 13.7309 102.94 12.1664 102.773 10.2768C102.725 9.73556 102.355 8.88404 101.966 8.77506C100.842 8.46105 99.6214 8.33175 98.4604 8.42226C98.1937 8.44258 97.9937 9.62658 97.8085 10.2878C97.5937 11.0562 97.4271 11.8376 97.24 12.6134C97.0956 13.1971 96.953 13.7826 96.7512 14.6138Z" fill="current"/>
<path d="M19.9528 11.1061C19.0547 10.2934 18.2936 9.53053 17.4548 8.86556C16.6548 8.232 15.7067 8.11379 14.7382 8.47398C13.4809 8.9413 13.2272 10.2195 14.266 11.0433C15.4234 11.9613 16.6344 12.8147 17.8418 13.6718C22.3323 16.8617 23.3989 21.8434 20.5805 26.6163C20.1917 27.2758 19.7324 27.9038 19.2362 28.4875C18.0677 29.8636 16.74 30.7779 14.7456 30.7594C11.7569 30.7299 8.76812 31.0088 5.77752 31.1215C5.37383 31.1362 4.91089 31.0236 4.56461 30.8185C2.77765 29.7601 1.38512 28.288 0.351836 26.5C0.205546 26.2451 0.205546 25.6577 0.383316 25.5062C2.24249 23.8974 4.15166 22.344 6.06269 20.7628C6.66451 21.5405 7.17745 22.3089 7.79594 22.9757C8.86997 24.1357 10.1699 24.8302 11.8291 24.5901C12.6179 24.4755 13.2401 24.1504 13.4975 23.3396C13.7623 22.5047 13.2883 21.9967 12.6883 21.5534C11.6698 20.8035 10.6903 19.9926 9.61808 19.3295C3.44799 15.5226 4.6035 7.85334 8.20333 4.09816C10.8328 1.35519 14.0531 0.132405 17.8214 0.596031C21.0083 0.987619 23.2656 2.90123 25.0303 5.45025C25.1452 5.61649 25.0952 6.06719 24.947 6.21495C23.2989 7.86997 21.6157 9.48989 19.9528 11.1061Z" fill="current"/>
<path d="M86.6053 28.5041C86.8127 31.8492 87.009 35.0503 87.2072 38.2532C87.2738 38.2661 87.3405 38.2772 87.4072 38.2901C88.2664 36.7422 89.1293 35.1962 89.9848 33.6465C90.8774 32.0302 91.7347 30.3937 92.6773 28.807C92.8699 28.4838 93.3624 28.1735 93.7346 28.1513C95.0772 28.0737 96.4253 28.1199 97.8567 28.1199C97.8141 28.36 97.7808 28.6574 97.7085 28.9437C96.2586 34.788 94.8087 40.6341 93.3328 46.4728C93.2662 46.737 92.9699 47.1341 92.7643 47.1452C91.481 47.208 90.1922 47.1766 88.7349 47.1766C89.5163 44.4539 90.257 41.8754 90.9977 39.2968C90.9403 39.2691 90.8848 39.2395 90.8274 39.2118C90.6589 39.4723 90.4774 39.7272 90.3237 39.995C89.0775 42.1524 87.8349 44.3135 86.5905 46.4728C86.235 47.0898 85.0239 47.5017 84.4666 47.1119C84.2536 46.9623 84.1721 46.5393 84.1406 46.229C83.9092 44.0272 83.7092 41.8236 83.4925 39.62C83.4684 39.3836 83.4055 39.1509 83.2055 38.9033C82.7685 40.804 82.3407 42.7084 81.8907 44.6072C81.6945 45.4384 81.7019 46.5707 81.1648 46.9974C80.6241 47.4259 79.5186 47.1544 78.6613 47.1784C78.1724 47.1914 77.6817 47.1803 77.1373 47.1803C77.1373 46.894 77.0965 46.6834 77.1428 46.4931C78.5557 40.7966 79.9705 35.102 81.4167 29.4147C81.4871 29.1395 81.8315 28.7535 82.0759 28.7331C83.5425 28.6112 85.0184 28.5743 86.6053 28.5041Z" fill="current"/>
<path d="M26.1488 47.184C26.5007 43.632 26.8395 40.2203 27.1765 36.8069C27.1414 36.7939 27.1043 36.7792 27.0691 36.7662C26.5914 37.8893 26.1062 39.0105 25.6359 40.1372C24.76 42.2374 23.873 44.3339 23.0341 46.447C22.8212 46.9826 22.5545 47.2098 21.9583 47.195C20.3657 47.1563 18.7732 47.1821 17.1196 47.1821C17.3751 44.6645 17.6066 42.2836 17.8622 39.9063C18.1251 37.4608 18.4529 35.0226 18.6658 32.5733C18.7306 31.8289 19.0325 31.6331 19.6861 31.6405C20.912 31.6553 22.1379 31.6442 23.4804 31.6442C23.2489 33.6409 23.0119 35.6986 22.7749 37.7544C22.8323 37.7729 22.8897 37.7932 22.9471 37.8117C23.7008 36.2232 24.5804 34.679 25.1711 33.0314C25.684 31.5999 26.5229 31.0974 27.9691 31.2138C29.0376 31.3006 30.119 31.2304 31.3412 31.2304C31.219 33.3712 31.0949 35.5656 30.9708 37.76C31.0227 37.7803 31.0745 37.8006 31.1264 37.8191C31.2615 37.5365 31.4134 37.2594 31.5319 36.9694C32.2559 35.2054 32.9911 33.447 33.68 31.67C33.8725 31.1732 34.1188 30.9423 34.6762 30.933C35.9039 30.9164 37.1298 30.8315 38.5168 30.7668C38.3742 31.1732 38.2927 31.4521 38.1816 31.7218C36.191 36.5871 34.1836 41.4468 32.2171 46.3214C31.9597 46.9623 31.6393 47.2172 30.9356 47.1932C29.3746 47.1489 27.8099 47.184 26.1488 47.184Z" fill="current"/>
<path d="M78.5798 35.355C78.4279 39.0881 77.2095 42.786 73.9004 45.5585C72.0819 47.0805 69.9857 47.7104 67.6192 47.4333C65.1415 47.1433 63.1453 45.2704 62.712 42.4904C62.0065 37.9706 63.0564 33.8866 66.1507 30.4085C66.7933 29.6862 67.5118 29.3168 68.5488 29.3094C70.9209 29.291 73.293 29.1321 75.6632 28.9769C76.3373 28.9326 76.7484 29.1727 77.1298 29.6899C78.2835 31.2581 78.5779 33.048 78.5798 35.355ZM73.7578 35.4825C73.7578 35.3901 73.7633 35.2978 73.7578 35.2054C73.6744 34.0066 73.693 32.7266 72.343 32.1503C71.4079 31.7513 70.1653 32.4126 69.1784 33.7425C67.7655 35.6469 67.2062 37.8228 67.3025 40.152C67.3488 41.2547 67.4988 42.4738 68.7691 42.8857C70.0154 43.2902 70.8838 42.459 71.6208 41.6112C73.1411 39.862 73.7059 37.7563 73.7578 35.4825Z" fill="current"/>
<path d="M94.7939 47.2006C95.6438 43.8296 96.4456 40.6489 97.2474 37.4681C97.99 34.5201 98.7381 31.5721 99.4677 28.6205C99.5788 28.1716 99.6788 27.8484 100.266 27.8243C103.655 27.6895 107.041 27.514 110.428 27.357C110.547 27.3515 110.669 27.3792 110.871 27.3995C110.528 28.7922 110.223 30.1573 109.834 31.4983C109.778 31.6904 109.321 31.8732 109.047 31.8788C107.414 31.9139 105.779 31.9194 104.145 31.8843C103.543 31.8714 103.242 32.0487 103.158 32.6693C103.073 33.301 102.892 33.9217 102.725 34.6735C104.649 34.6735 106.479 34.6735 108.467 34.6735C108.115 36.1733 107.819 37.5402 107.451 38.8886C107.404 39.0604 106.977 39.2229 106.723 39.2284C105.275 39.2617 103.823 39.2765 102.377 39.2303C101.755 39.21 101.495 39.4445 101.384 40.019C101.221 40.8594 101.005 41.6906 100.782 42.6493C102.912 42.6493 104.96 42.6493 107.119 42.6493C106.793 44.1214 106.508 45.468 106.179 46.8016C106.138 46.966 105.849 47.184 105.675 47.184C102.099 47.2061 98.527 47.2006 94.7939 47.2006Z" fill="current"/>
<path d="M15.9178 47.1747C14.5864 47.1747 13.1142 47.1932 11.6458 47.147C11.4884 47.1415 11.2513 46.7647 11.2143 46.5338C11.1458 46.0923 11.1939 45.6305 11.1939 45.0653C9.54586 45.0653 7.95149 45.0284 6.36267 45.1023C6.10343 45.1152 5.75344 45.5844 5.64419 45.9095C5.29606 46.942 4.6609 47.3059 3.57206 47.2061C2.45359 47.1045 1.31846 47.184 0 47.184C0.551827 46.1367 0.996251 45.2741 1.45734 44.4207C3.53132 40.5768 5.6016 36.7311 7.69595 32.8965C7.85335 32.6084 8.17185 32.2205 8.43666 32.2039C10.8588 32.0506 13.2864 31.9674 15.9197 31.8548C15.9178 36.9916 15.9178 42.0176 15.9178 47.1747ZM11.8143 33.2807C11.7569 33.2641 11.6995 33.2456 11.6402 33.229C10.5847 35.5287 9.53105 37.8265 8.45147 40.1816C9.56808 40.1816 10.5032 40.1816 11.481 40.1816C11.5958 37.832 11.705 35.5564 11.8143 33.2807Z" fill="current"/>
<path d="M35.3836 47.027C35.4188 46.7924 35.4354 46.5245 35.5002 46.2678C36.702 41.4357 37.9335 36.6092 39.0945 31.7679C39.3001 30.909 39.6741 30.6689 40.5241 30.643C43.5462 30.5544 46.5646 30.3771 49.5848 30.2348C49.8551 30.2219 50.1274 30.233 50.5496 30.233C50.357 31.0254 50.2385 31.7439 49.9866 32.4144C49.9126 32.6139 49.4663 32.7746 49.1867 32.7802C47.583 32.8153 45.9776 32.8263 44.3739 32.7839C43.7258 32.7672 43.4091 32.963 43.3258 33.6188C43.2573 34.1581 43.0925 34.6845 42.9332 35.3735C44.8369 35.3735 46.6331 35.3735 48.5848 35.3735C48.2237 36.842 47.9275 38.1497 47.5571 39.4372C47.5053 39.6163 47.0868 39.7863 46.8349 39.7937C45.4479 39.8288 44.0573 39.8435 42.6703 39.7973C42.0129 39.7752 41.7277 39.9987 41.6185 40.6378C41.5018 41.3212 41.2796 41.9843 41.0704 42.7878C43.2277 42.7878 45.2498 42.7878 47.4386 42.7878C47.0886 44.2212 46.7849 45.5234 46.4331 46.8108C46.3886 46.9715 46.0794 47.1673 45.8924 47.1673C42.4685 47.1803 39.0427 47.1655 35.6188 47.1526C35.5651 47.1507 35.5132 47.0971 35.3836 47.027Z" fill="current"/>
<path d="M51.4847 40.732C52.0495 41.336 52.4791 41.8624 52.9791 42.3113C53.7124 42.9688 54.6216 43.2459 55.5567 42.9356C55.9882 42.7934 56.4845 42.3427 56.6067 41.9308C56.7067 41.5946 56.4011 40.9869 56.0901 40.7098C55.3105 40.0172 54.442 39.4168 53.5791 38.8258C50.3903 36.6369 51.1125 32.3424 52.6569 30.4399C52.8346 30.2201 53.2235 30.0778 53.5217 30.0631C56.416 29.9079 59.3121 29.7564 62.2102 29.6918C62.6212 29.6826 63.0934 30.1018 63.4212 30.4362C63.5064 30.5248 63.2064 31.0864 62.986 31.3523C62.2601 32.226 61.4917 33.0646 60.738 33.9161C60.6565 33.8386 60.575 33.7628 60.4936 33.6852C60.1102 33.3306 59.7843 32.8411 59.3325 32.6527C58.6603 32.3701 57.8955 32.1743 57.177 32.1983C56.8493 32.2094 56.3937 32.7912 56.2771 33.1958C56.1919 33.4895 56.4771 34.0196 56.7567 34.2597C57.5252 34.921 58.377 35.4843 59.1973 36.0847C61.488 37.76 62.1083 39.5037 61.3991 42.2799C60.7158 44.9545 58.4381 47.0085 55.6827 47.4001C52.6217 47.836 50.1662 46.8552 48.3941 44.2711C48.0719 43.8019 48.0756 43.4879 48.5552 43.1185C49.5552 42.3556 50.5088 41.5336 51.4847 40.732Z" fill="current"/>
</svg>
