<svg  viewBox="0 0 35 35" fill="none" xmlns="http://www.w3.org/2000/svg">
<path d="M33.2521 6.3468C32.7337 6.59361 32.2007 6.8019 31.6561 6.97101C32.3008 6.18832 32.7924 5.26739 33.0925 4.25961C33.1598 4.03371 33.0901 3.78645 32.9171 3.63872C32.7443 3.49086 32.5043 3.47315 32.314 3.59415C31.1575 4.33045 29.9096 4.85959 28.6012 5.16901C27.2833 3.78668 25.4932 3 23.6426 3C19.7364 3 16.5584 6.41102 16.5584 10.6037C16.5584 10.9339 16.5779 11.2623 16.6164 11.5861C11.7692 11.1293 7.26276 8.57203 4.16823 4.49761C4.05794 4.35239 3.88805 4.27412 3.7141 4.28909C3.54006 4.30371 3.38368 4.40906 3.29575 4.57097C2.66811 5.72694 2.33631 7.04905 2.33631 8.39424C2.33631 10.2264 2.94574 11.9648 4.02228 13.3231C3.69494 13.2014 3.37729 13.0493 3.07412 12.8687C2.91136 12.7714 2.71272 12.7729 2.55102 12.8724C2.38921 12.972 2.28776 13.155 2.28351 13.3551C2.28276 13.3888 2.28276 13.4225 2.28276 13.4567C2.28276 16.1915 3.65407 18.6537 5.75062 19.9957C5.57051 19.9764 5.3905 19.9484 5.21166 19.9117C5.02729 19.8739 4.8377 19.9432 4.71336 20.0942C4.58881 20.245 4.54762 20.4552 4.60499 20.6472C5.38102 23.2478 7.37901 25.1606 9.79439 25.7438C7.79108 27.0906 5.50014 27.796 3.0952 27.796C2.59339 27.796 2.0887 27.7644 1.59477 27.7016C1.3494 27.6703 1.11478 27.8258 1.03121 28.0763C0.947649 28.3269 1.03622 28.6062 1.24497 28.7499C4.3345 30.8761 7.9069 32 11.5757 32C18.7882 32 23.3002 28.3494 25.8151 25.2869C28.9511 21.4682 30.7497 16.4136 30.7497 11.4194C30.7497 11.2108 30.7468 11.0001 30.7408 10.7901C31.9781 9.78947 33.0433 8.57854 33.9102 7.18673C34.0419 6.97535 34.0276 6.69598 33.875 6.5014C33.7227 6.3067 33.4688 6.24374 33.2521 6.3468Z" fill="#BBFF4B"/>
</svg>
