<svg  viewBox="0 0 101 46" fill="current" xmlns="http://www.w3.org/2000/svg">
<path d="M100.938 45.5C67.6036 45.5 34.2716 45.5 0.937622 45.5C0.937622 30.5007 0.937622 15.4993 0.937622 0.5C34.2716 0.5 67.6036 0.5 100.938 0.5C100.938 15.4993 100.938 30.5007 100.938 45.5ZM48.3756 40.9961C48.8976 40.9961 49.2876 40.9961 49.6796 40.9961C64.8456 40.9961 80.0116 40.9961 95.1796 40.9961C96.4816 40.9961 96.4836 40.9941 96.4836 39.7168C96.4836 28.5808 96.4836 17.4467 96.4836 6.3107C96.4836 4.98035 96.4816 4.97838 95.1256 4.97838C84.2256 4.97838 73.3256 4.97838 62.4256 4.97838C58.0916 4.97838 53.7596 4.99803 49.4256 4.96266C48.5976 4.95677 48.3236 5.19454 48.3536 6.0179C48.4136 7.58799 48.4116 9.16201 48.3536 10.7321C48.3236 11.5397 48.5516 11.9052 49.4016 12.1509C55.9876 14.0629 59.4076 21.1921 56.7396 27.4155C55.3236 30.7188 52.8196 32.8745 49.3396 33.9611C48.9736 34.0751 48.4256 34.4465 48.4156 34.7157C48.3396 36.7397 48.3756 38.7677 48.3756 40.9961ZM5.48962 41.0177C5.97162 41.0177 6.39562 41.0177 6.81962 41.0177C15.5516 41.0177 24.2836 41.0177 33.0156 41.0177C36.2816 41.0177 39.5476 40.9941 42.8136 41.0334C43.6096 41.0432 43.8516 40.7838 43.8316 40.0234C43.7856 38.355 43.7976 36.6828 43.8276 35.0144C43.8376 34.4269 43.6156 34.193 43.0456 33.9827C41.8696 33.5485 40.6336 33.126 39.6236 32.4225C35.7536 29.7245 34.0036 25.983 34.7136 21.3552C35.4296 16.6882 38.2396 13.6148 42.7976 12.1489C43.5676 11.9013 43.8736 11.6223 43.8376 10.8107C43.7716 9.27402 43.7496 7.72948 43.8416 6.19672C43.9036 5.15917 43.5116 4.9607 42.5356 4.96266C30.5716 4.9941 18.6076 4.98231 6.64162 4.98231C6.28162 4.98231 5.92162 4.98231 5.48762 4.98231C5.48962 17.0242 5.48962 28.9561 5.48962 41.0177ZM39.0856 23.0138C39.0796 26.8633 42.2216 29.9721 46.1096 29.9662C49.9836 29.9603 53.1676 26.8103 53.1496 23.002C53.1316 19.2271 50.0036 16.1419 46.1476 16.1007C42.2776 16.0574 39.0916 19.1779 39.0856 23.0138Z" fill="current"/>
<path d="M71.7596 16.4367C71.7596 22.1688 71.7596 27.783 71.7596 33.5386C70.3256 33.5386 69.0036 33.5779 67.6896 33.4954C67.4956 33.4836 67.1876 32.898 67.1856 32.5758C67.1516 28.5179 67.1616 24.4581 67.1616 20.3983C67.1616 19.1269 67.1616 17.8574 67.1616 16.4347C65.5056 16.4347 63.9536 16.4347 62.3996 16.4347C59.8536 16.4347 59.8536 16.4347 59.8536 13.9175C59.8536 11.917 59.8536 11.917 61.9396 11.917C67.2696 11.917 72.6016 11.9347 77.9316 11.8993C78.8296 11.8934 79.2076 12.1214 79.1276 13.0509C79.0536 13.8959 79.0816 14.7526 79.1196 15.6015C79.1476 16.248 78.8856 16.4544 78.2416 16.4426C76.4756 16.4111 74.7096 16.4328 72.9456 16.4328C72.5876 16.4367 72.2296 16.4367 71.7596 16.4367Z" fill="current"/>
<path d="M86.8716 33.4993C85.4536 33.4993 84.0676 33.4993 82.5676 33.4993C82.5456 33.126 82.5056 32.7821 82.5056 32.4362C82.5016 25.9614 82.5176 19.4865 82.4836 13.0135C82.4796 12.1568 82.7136 11.8365 83.6016 11.9072C84.4936 11.9779 85.4016 11.8738 86.2936 11.9583C86.5516 11.9819 86.9836 12.3828 86.9836 12.6107C87.0116 19.4766 86.9936 26.3426 86.9816 33.2085C86.9836 33.2675 86.9396 33.3264 86.8716 33.4993Z" fill="current"/>
<path d="M12.1156 14.6406C13.2696 13.5893 14.3136 12.6343 15.4596 11.5908C17.9396 14.226 20.3716 16.812 22.9316 19.5317C25.4296 16.8729 27.8756 14.2692 30.3956 11.5889C31.5336 12.6245 32.5976 13.5932 33.7276 14.6229C33.4456 14.9472 33.2216 15.2203 32.9816 15.4758C30.6136 18.0048 28.2196 20.5142 25.8916 23.0806C25.5176 23.4932 25.2596 24.1574 25.2456 24.7135C25.1796 27.331 25.1916 29.9524 25.2296 32.5699C25.2416 33.3362 25.0076 33.6271 24.2116 33.5721C23.3496 33.5131 22.4776 33.517 21.6136 33.5701C20.8676 33.6172 20.6336 33.352 20.6436 32.6229C20.6796 29.9721 20.6916 27.3192 20.6296 24.6683C20.6176 24.1417 20.3676 23.5129 20.0116 23.1218C17.6796 20.5594 15.2876 18.05 12.9176 15.5229C12.6756 15.2616 12.4376 14.9943 12.1156 14.6406Z" fill="current"/>
</svg>
